<svg width="60" height="80" viewBox="0 0 60 80" fill="none" xmlns="http://www.w3.org/2000/svg">
<rect x="3" y="3" width="54" height="73" fill="white"/>
<path d="M55.288 0H4.71204C2.11382 0 0 2.11106 0 4.70588V75.2941C0 77.8889 2.11382 80 4.71204 80H55.288C57.8862 80 60 77.8889 60 75.2941V4.70588C60 2.11106 57.8862 0 55.288 0ZM55.288 75.2941H4.71204V4.70588H55.288C55.2909 76.8387 55.3037 75.2941 55.288 75.2941Z" fill="black"/>
<path d="M38.7958 31.3726C32.345 31.3726 27.1429 36.8786 27.6854 43.4345C27.6245 43.762 27.644 42.3962 27.644 65.0981C27.644 66.7685 29.3431 67.9086 30.8916 67.2759L38.7958 64.0486L46.6999 67.2761C48.2437 67.9062 49.9476 66.7744 49.9476 65.0981V42.5098C49.9476 36.3688 44.9448 31.3726 38.7958 31.3726ZM38.7958 36.0784C42.3466 36.0784 45.2356 38.9636 45.2356 42.5098C45.2356 46.056 42.3466 48.9412 38.7958 48.9412C35.2449 48.9412 32.356 46.056 32.356 42.5098C32.356 38.9636 35.2449 36.0784 38.7958 36.0784ZM39.6875 59.3286C39.1159 59.0954 38.4757 59.0954 37.9041 59.3286L32.356 61.5941V51.5939C36.2164 54.3315 41.3712 54.3343 45.2356 51.5939V61.5941L39.6875 59.3286Z" fill="black"/>
<path d="M47.5916 11.2939H12.4084C11.1072 11.2939 10.0524 12.3474 10.0524 13.6469C10.0524 14.9463 11.1072 15.9998 12.4084 15.9998H47.5916C48.8928 15.9998 49.9477 14.9463 49.9477 13.6469C49.9477 12.3474 48.8928 11.2939 47.5916 11.2939Z" fill="black"/>
<path d="M47.5916 21.3335H12.4084C11.1072 21.3335 10.0524 22.387 10.0524 23.6864C10.0524 24.9859 11.1072 26.0394 12.4084 26.0394H47.5916C48.8928 26.0394 49.9477 24.9859 49.9477 23.6864C49.9477 22.387 48.8928 21.3335 47.5916 21.3335Z" fill="black"/>
<path d="M20.502 31.6865H11.854C10.8589 31.6865 10.0522 32.74 10.0522 34.0395C10.0522 35.3389 10.8589 36.3924 11.854 36.3924H20.502C21.497 36.3924 22.3037 35.3389 22.3037 34.0395C22.3037 32.74 21.497 31.6865 20.502 31.6865Z" fill="black"/>
<path d="M19.9477 41.4116H12.4084C11.1072 41.4116 10.0524 42.4651 10.0524 43.7646C10.0524 45.064 11.1072 46.1175 12.4084 46.1175H19.9477C21.2488 46.1175 22.3037 45.064 22.3037 43.7646C22.3037 42.4651 21.2488 41.4116 19.9477 41.4116Z" fill="black"/>
<path d="M19.9477 51.4512H12.4084C11.1072 51.4512 10.0524 52.5047 10.0524 53.8041C10.0524 55.1036 11.1072 56.1571 12.4084 56.1571H19.9477C21.2488 56.1571 22.3037 55.1036 22.3037 53.8041C22.3037 52.5047 21.2488 51.4512 19.9477 51.4512Z" fill="black"/>
<path d="M19.9477 61.4902H12.4084C11.1072 61.4902 10.0524 62.5437 10.0524 63.8432C10.0524 65.1426 11.1072 66.1961 12.4084 66.1961H19.9477C21.2488 66.1961 22.3037 65.1426 22.3037 63.8432C22.3037 62.5437 21.2488 61.4902 19.9477 61.4902Z" fill="black"/>
</svg>
