<svg width="80" height="80" viewBox="0 0 80 80" fill="none" xmlns="http://www.w3.org/2000/svg">
    <g clip-path="url(#clip0)">
        <path fill-rule="evenodd" clip-rule="evenodd" d="M51.8725 9.53258C51.8725 12.0373 50.8834 14.3121 49.2789 15.9948C53.6429 18.4509 56.5597 23.1349 56.5598 28.4377V30.7813C56.5598 32.0749 55.5098 33.1249 54.2162 33.1249H30.6239C29.3303 33.1249 28.2803 32.0749 28.2803 30.7813V28.4377C28.2803 23.0287 31.3614 18.4165 35.647 16.0135C33.919 14.2526 32.9675 11.9605 32.9675 9.53258C32.9675 4.3657 37.3312 0.00195312 42.4981 0.00195312C47.704 0.00195312 51.8725 4.37352 51.8725 9.53258ZM67.82 40.0512C70.5948 37.0732 74.8227 37.2623 77.4975 39.4668C80.4286 41.887 80.7739 46.1509 78.5912 49.0587L67.3403 64.0609C64.2592 68.1699 59.3517 70.6229 54.2161 70.6229H26.5209C26.6131 73.2757 25.1914 75.882 22.6369 77.1584L17.4544 79.7504C16.2966 80.3284 14.8889 79.8598 14.3092 78.702L0.247501 50.5787C-0.330468 49.4209 0.138126 48.0132 1.29594 47.4335L6.47844 44.8431C8.52063 43.8227 10.8923 43.8493 12.9234 44.9243L17.4419 40.9465C23.6009 35.5265 32.88 35.5093 39.0578 40.8949C39.2742 41.0616 39.4672 41.2124 39.6415 41.3485C40.7726 42.232 41.115 42.4995 41.9233 42.4995H54.2163C57.3675 42.4995 60.0408 44.5837 60.9314 47.446L67.82 40.0512Z" fill="white"/>
        <path d="M77.4975 39.4669C74.8227 37.2624 70.5948 37.0733 67.82 40.0513L60.9314 47.4461C60.0408 44.5838 57.3675 42.4996 54.2163 42.4996H41.9233C40.9905 42.4996 40.6781 42.1433 39.0578 40.895C32.88 35.5094 23.6009 35.5266 17.4419 40.9466L12.9234 44.9244C10.8923 43.8494 8.52063 43.8228 6.47844 44.8431L1.29594 47.4336C0.138126 48.0133 -0.330468 49.421 0.247501 50.5788L14.3092 78.7021C14.8889 79.8599 16.2966 80.3285 17.4544 79.7505L22.6369 77.1585C25.1914 75.8821 26.6131 73.2758 26.5209 70.623H54.2161C59.3517 70.623 64.2592 68.17 67.3403 64.061L78.5912 49.0588C80.7739 46.151 80.4286 41.8871 77.4975 39.4669ZM20.54 72.9664L17.4542 74.51L5.48781 50.5788L8.57516 49.0352C9.73297 48.4571 11.1391 48.9242 11.7188 50.0836L21.5884 69.823C22.1666 70.9806 21.6978 72.3867 20.54 72.9664ZM74.8414 46.2463L63.5906 61.2485C61.3892 64.1842 57.8847 65.9356 54.2163 65.9356H24.8852L16.1028 48.3696L20.5384 44.4652C24.9522 40.5825 31.6081 40.5825 36.0219 44.4652C38.6217 46.7541 40.2388 47.1869 41.9231 47.1869H54.2161C55.5083 47.1869 56.5597 48.2385 56.5597 49.5305C56.5597 50.8225 55.5081 51.8741 54.2161 51.8741H42.2466C40.9528 51.8741 39.903 52.9241 39.903 54.2177C39.903 55.5113 40.953 56.5613 42.2466 56.5613H55.7864C57.7316 56.5613 59.6066 55.7456 60.9314 54.3224L71.2495 43.2464C72.1933 42.2339 73.64 42.3183 74.5275 43.0949C75.4555 43.9072 75.5556 45.2963 74.8414 46.2463Z" fill="black"/>
        <path d="M49.2789 15.9948C50.8834 14.3121 51.8724 12.0373 51.8724 9.53258C51.8724 4.37352 47.704 0.00195312 42.4981 0.00195312C37.3312 0.00195312 32.9675 4.3657 32.9675 9.53258C32.9675 11.9605 33.919 14.2526 35.647 16.0135C31.3614 18.4165 28.2803 23.0287 28.2803 28.4377V30.7813C28.2803 32.0749 29.3303 33.1249 30.6239 33.1249H54.2162C55.5098 33.1249 56.5598 32.0749 56.5598 30.7813V28.4377C56.5596 23.1349 53.6429 18.4509 49.2789 15.9948ZM42.4981 4.6893C45.0385 4.6893 47.1853 6.90789 47.1853 9.53273C47.1853 12.117 45.0823 14.2199 42.4981 14.2199C39.8732 14.2199 37.6546 12.0732 37.6546 9.53273C37.6546 6.9532 39.9185 4.6893 42.4981 4.6893ZM32.9675 28.4377C32.9675 23.2709 37.3312 18.9071 42.4981 18.9071C47.6665 18.9071 51.8724 23.1818 51.8724 28.4377H32.9675Z" fill="black"/>
    </g>
    <defs>
        <clipPath id="clip0">
            <rect width="80" height="80" fill="white"/>
        </clipPath>
    </defs>
</svg>
