<svg width="80" height="80" viewBox="0 0 80 80" fill="none" xmlns="http://www.w3.org/2000/svg">
    <g clip-path="url(#clip0)">
        <path d="M70.6885 0C67.9199 0 65.3125 1.22069 63.5377 3.3496L44.3674 26.3525C38.559 24.1592 31.8043 25.2337 27.0581 29.5166C23.418 32.8028 12.3438 42.8004 1.96778 45.0561C0.749501 45.3223 -0.0878617 46.4453 0.00736832 47.6904C0.87166 59.0429 9.812 68.1737 26.5772 74.8242C26.8726 74.9414 27.1851 74.9999 27.5 74.9999C27.5635 74.9999 27.6269 74.9975 27.6904 74.9925C35.1293 74.4261 48.0493 56.9017 52.3998 50.1977C55.3438 45.663 55.7022 40.1886 53.8181 35.4919L76.6504 16.4625C78.7793 14.6875 80 12.0801 80 9.31163C80 4.17718 75.8228 0 70.6885 0Z" fill="white"/>
        <path d="M55.7647 67.6804C56.741 68.6568 56.741 70.2396 55.7647 71.216C54.7883 72.1923 53.2055 72.1923 52.2291 71.216C51.2527 70.2396 51.2527 68.6568 52.2291 67.6804C53.2055 66.7042 54.7884 66.7042 55.7647 67.6804Z" fill="black"/>
        <path d="M45.4641 77.9818C46.4405 78.9582 46.4405 80.541 45.4641 81.5173C44.4877 82.4937 42.9049 82.4937 41.9286 81.5173C40.9522 80.541 40.9522 78.9582 41.9286 77.9818C42.9049 77.0054 44.4877 77.0054 45.4641 77.9818Z" fill="black"/>
        <path d="M63.5356 71.4644C65.4881 73.417 65.4881 76.583 63.5356 78.5356C61.583 80.4881 58.417 80.4881 56.4644 78.5356C54.5119 76.583 54.5119 73.417 56.4644 71.4644C58.4172 69.5119 61.583 69.5119 63.5356 71.4644Z" fill="black"/>
        <path d="M70.6885 0C67.9199 0 65.3125 1.22069 63.5377 3.3496L44.3674 26.3525C38.559 24.1592 31.8043 25.2337 27.0581 29.5166C23.418 32.8028 12.3438 42.8004 1.96778 45.0561C0.749501 45.3223 -0.0878617 46.4453 0.00736833 47.6904C0.87166 59.0429 9.812 68.1737 26.5772 74.8242C26.8726 74.9414 27.1851 74.9999 27.5 74.9999C27.5635 74.9999 27.6269 74.9975 27.6904 74.9925C35.1294 74.4261 48.0494 56.9017 52.3998 50.1977C55.3439 45.663 55.7022 40.1886 53.8181 35.4919L76.6504 16.4625C78.7793 14.6875 80 12.0801 80 9.31163C80 4.17718 75.8228 0 70.6885 0V0ZM48.2057 47.478C41.1695 58.3202 31.5577 68.8206 27.776 69.9169C25.1365 68.846 22.7898 67.6998 20.6044 66.513C24.7389 61.0205 31.1092 50 31.1092 50C31.1092 50 18.1811 58.6053 13.2827 61.6352C12.3611 60.8649 11.5194 60.0757 10.7509 59.2686C13.8801 55.3822 20.0001 47.5001 20.0001 47.5001C20.0001 47.5001 11.1616 51.7805 6.93584 53.9604C6.18423 52.473 5.58307 50.9508 5.27105 49.3629C12.5806 47.1729 20.8349 41.8726 30.4077 33.2276C34.5092 29.5264 40.7568 29.1676 45.2636 32.3853C50.1441 35.8716 51.4357 42.5 48.2057 47.478ZM73.4473 12.6197L51.1745 31.1829C50.4716 30.3409 49.6818 29.5637 48.7919 28.8579L67.3805 6.55282C68.2008 5.56652 69.4068 5.0001 70.6885 5.0001C73.0664 5.0001 75.0001 6.93374 75.0001 9.31163C75.0001 10.5933 74.4336 11.7993 73.4473 12.6197Z" fill="black"/>
    </g>
    <defs>
        <clipPath id="clip0">
            <rect width="80" height="80" fill="white"/>
        </clipPath>
    </defs>
</svg>
