<svg width="80" height="80" viewBox="0 0 80 80" fill="none" xmlns="http://www.w3.org/2000/svg">
    <g clip-path="url(#clip0)">
        <circle cx="40.0001" cy="40.0001" r="34.4444" fill="white"/>
        <path d="M79.9871 35.3837C79.919 34.7359 79.5858 34.1451 79.0666 33.7518L72.7296 28.9516L75.0352 21.3438C75.2241 20.7204 75.1466 20.0466 74.821 19.4826C74.4952 18.9185 73.9505 18.5145 73.3163 18.3663L65.5744 16.5587L64.5862 8.67086C64.5051 8.02461 64.1602 7.44055 63.6333 7.05774C63.1065 6.67477 62.4448 6.52742 61.8049 6.64992L53.9974 8.14742L49.8858 1.34352C49.549 0.786173 48.9963 0.392892 48.3593 0.25758C47.7221 0.122111 47.0573 0.256486 46.523 0.628673L39.9999 5.17242L33.4766 0.628673C32.9421 0.256486 32.2774 0.122111 31.6402 0.25758C31.003 0.393048 30.4505 0.786017 30.1137 1.34367L26.0026 8.14774L18.1951 6.65024C17.5555 6.52789 16.8935 6.67508 16.3665 7.05805C15.8396 7.44102 15.4946 8.02477 15.4137 8.67117L14.4254 16.559L6.6835 18.3666C6.04913 18.5148 5.5046 18.9188 5.17881 19.4829C4.85303 20.0471 4.77553 20.7207 4.96444 21.344L7.26975 28.952L0.933346 33.752C0.414127 34.1452 0.0810023 34.7359 0.0128773 35.3837C-0.0550915 36.0315 0.148034 36.6785 0.574127 37.1712L5.77428 43.1838L1.93772 50.1463C1.6235 50.7168 1.55928 51.392 1.76053 52.0115C1.96178 52.6307 2.41053 53.1393 3.00022 53.416L10.1965 56.7935L9.52319 64.7148C9.46803 65.3638 9.68397 66.0068 10.1199 66.4909C10.5557 66.9749 11.1726 67.2568 11.8237 67.2699L19.7721 67.4284L22.3785 74.9384C22.5921 75.5537 23.0508 76.0534 23.6458 76.3182C24.241 76.5831 24.9191 76.5898 25.5193 76.337L32.8451 73.249L38.2812 79.0496C38.7265 79.5249 39.3488 79.7946 40.0002 79.7946C40.6516 79.7946 41.2738 79.5249 41.7193 79.0496L47.1554 73.249L54.4807 76.337C55.0808 76.5896 55.759 76.5831 56.3541 76.3182C56.9493 76.0532 57.408 75.554 57.6215 74.9385L60.2283 67.4284L68.1763 67.2699C68.8277 67.257 69.4444 66.9749 69.8802 66.4909C70.316 66.0068 70.5321 65.364 70.4769 64.7148L69.8037 56.7935L77.0004 53.416C77.5899 53.1393 78.0388 52.6307 78.2401 52.0113C78.4413 51.3921 78.3773 50.7168 78.0627 50.1462L74.2257 43.1838L79.4263 37.1712C79.8519 36.6785 80.0551 36.0315 79.9871 35.3837ZM69.3065 44.0209L72.7221 50.2188L66.3157 53.2254C65.423 53.6445 64.8857 54.5752 64.9693 55.5577L65.5687 62.609L58.4933 62.7501C57.5074 62.7698 56.638 63.4013 56.3146 64.3329L53.994 71.0185L47.473 68.2695C46.5643 67.8863 45.5132 68.1098 44.839 68.8293L39.9999 73.9927L35.1608 68.8291C34.706 68.3437 34.0796 68.084 33.4412 68.084C33.1333 68.084 32.8224 68.1445 32.5266 68.2691L26.0054 71.0182L23.6851 64.3327C23.3616 63.401 22.4924 62.7693 21.5063 62.7498L14.4305 62.6087L15.0299 55.5574C15.1135 54.5749 14.5762 53.6441 13.6835 53.2251L7.27757 50.2184L10.6929 44.0202C11.1688 43.1565 11.0563 42.0879 10.4115 41.342L5.78225 35.9896L11.4232 31.7166C12.2093 31.1212 12.5413 30.0993 12.2554 29.1554L10.2032 22.3827L17.0949 20.7737C18.0552 20.5495 18.7741 19.7507 18.8969 18.7723L19.7766 11.7507L26.7268 13.0837C27.6952 13.2696 28.6769 12.8323 29.1869 11.9882L32.8466 5.93149L38.6537 9.97617C39.4629 10.5398 40.5376 10.5398 41.3466 9.97617L47.1534 5.93149L50.8133 11.9884C51.3232 12.8323 52.3044 13.2696 53.2735 13.0837L60.2237 11.7507L61.1033 18.7723C61.226 19.7507 61.9451 20.5495 62.9054 20.7737L69.7971 22.3827L67.7446 29.1552C67.4585 30.099 67.7905 31.1212 68.5766 31.7166L74.2179 35.9896L69.5883 41.342C68.9429 42.0882 68.8304 43.1571 69.3065 44.0209Z" fill="black"/>
        <path d="M40 17.4565C27.5694 17.4565 17.4565 27.5695 17.4565 39.9998C17.4565 52.4301 27.5697 62.5433 40 62.5433C52.4303 62.5433 62.5434 52.4303 62.5434 40C62.5434 27.5697 52.4305 17.4565 40 17.4565ZM40 57.8315C30.1676 57.8315 22.1684 49.8323 22.1684 40C22.1684 30.1676 30.1676 22.1684 40 22.1684C49.8323 22.1684 57.8316 30.1676 57.8316 40C57.8316 49.8323 49.8323 57.8315 40 57.8315Z" fill="black"/>
        <path d="M49.2365 33.2873C48.3162 32.3671 46.8245 32.3671 45.9045 33.2873L37.4766 41.7149L34.0956 38.334C33.1756 37.4138 31.6838 37.4142 30.7638 38.334C29.844 39.254 29.844 40.7457 30.764 41.6657L35.811 46.7126C36.271 47.1726 36.874 47.4026 37.4768 47.4026C38.0798 47.4026 38.6827 47.1724 39.1426 46.7126L49.2363 36.619C50.1563 35.6992 50.1563 34.2073 49.2365 33.2873Z" fill="black"/>
    </g>
    <defs>
        <clipPath id="clip0">
            <rect width="80" height="80" fill="white"/>
        </clipPath>
    </defs>
</svg>
