<svg width="80" height="80" viewBox="0 0 80 80" fill="none" xmlns="http://www.w3.org/2000/svg">
    <g clip-path="url(#clip0)">
        <path d="M74.3079 75.3718L56.7194 67.2554C55.8923 66.8739 55.3577 66.0383 55.3577 65.1277V57.8242C57.746 54.6394 59.1626 50.6867 59.1626 46.4088V33.2819H64.1065C65.401 33.2819 66.4502 32.2327 66.4502 30.9382C66.4502 29.6442 65.401 28.5944 64.1065 28.5944H62.1375V26.1713C62.1375 18.6176 58.3173 11.9403 52.5073 7.96815V6.47767C52.5073 5.18312 51.4581 4.13392 50.1636 4.13392C49.1809 4.13392 48.341 4.73939 47.9925 5.59632C46.239 4.92127 44.3786 4.46412 42.4444 4.25843V2.1875C42.4444 0.892946 41.3946 -0.15625 40.1007 -0.15625C38.8061 -0.15625 37.7569 0.892946 37.7569 2.1875V4.25843C35.8221 4.46412 33.9624 4.92127 32.2094 5.59571C31.8609 4.73878 31.0211 4.13392 30.0384 4.13392C28.7444 4.13392 27.6946 5.18312 27.6946 6.47767V7.96693C21.8847 11.9391 18.0633 18.617 18.0633 26.1707V28.5944H16.0943C14.8003 28.5944 13.7505 29.6436 13.7505 30.9382C13.7505 32.2327 14.8003 33.2819 16.0943 33.2819H21.0381V46.4088C21.0381 50.6861 22.4548 54.6394 24.8437 57.8236V65.1271C24.8437 66.0383 24.309 66.8739 23.482 67.2554L5.89284 75.3718C4.8937 75.8333 4.34987 76.9276 4.58608 78.0031C4.82229 79.0779 5.77444 79.8439 6.8749 79.8439H73.3258C74.4269 79.8439 75.3791 79.0779 75.6153 78.0031C75.8515 76.9276 75.3076 75.8333 74.3079 75.3718Z" fill="white"/>
        <path d="M74.3079 75.3718L56.7194 67.2554C55.8923 66.8739 55.3577 66.0383 55.3577 65.1277V57.8242C57.746 54.6394 59.1626 50.6867 59.1626 46.4088V33.2819H64.1065C65.401 33.2819 66.4502 32.2327 66.4502 30.9382C66.4502 29.6442 65.401 28.5944 64.1065 28.5944H62.1375V26.1713C62.1375 18.6176 58.3173 11.9403 52.5073 7.96815V6.47767C52.5073 5.18312 51.4581 4.13392 50.1636 4.13392C49.1809 4.13392 48.341 4.73939 47.9925 5.59632C46.239 4.92127 44.3786 4.46412 42.4444 4.25843V2.1875C42.4444 0.892946 41.3946 -0.15625 40.1007 -0.15625C38.8061 -0.15625 37.7569 0.892946 37.7569 2.1875V4.25843C35.8221 4.46412 33.9624 4.92127 32.2094 5.59571C31.8609 4.73878 31.0211 4.13392 30.0384 4.13392C28.7444 4.13392 27.6946 5.18312 27.6946 6.47767V7.96693C21.8847 11.9391 18.0633 18.617 18.0633 26.1707V28.5944H16.0943C14.8003 28.5944 13.7505 29.6436 13.7505 30.9382C13.7505 32.2327 14.8003 33.2819 16.0943 33.2819H21.0381V46.4088C21.0381 50.6861 22.4548 54.6394 24.8437 57.8236V65.1271C24.8437 66.0383 24.309 66.8739 23.482 67.2554L5.89284 75.3718C4.8937 75.8333 4.34987 76.9276 4.58608 78.0031C4.82229 79.0779 5.77444 79.8439 6.8749 79.8439H73.3258C74.4269 79.8439 75.3791 79.0779 75.6153 78.0031C75.8515 76.9276 75.3077 75.8333 74.3079 75.3718ZM30.3674 71.4009C29.4097 70.1771 28.9953 68.9192 28.8226 68.1935C29.2791 67.2535 29.5312 66.2086 29.5312 65.1277V62.2639C32.5579 64.2885 36.1938 65.4707 40.1007 65.4707C44.0075 65.4707 47.6434 64.2885 50.6702 62.2639V65.1277C50.6702 66.2568 50.9448 67.3475 51.4416 68.3198C51.2408 69.0632 50.8063 70.24 49.8956 71.3881C47.912 73.8887 44.6167 75.1564 40.1013 75.1564C35.592 75.1564 32.3168 73.893 30.3674 71.4009ZM22.7508 26.1713C22.7508 21.4612 24.638 17.1845 27.6953 14.0552V17.8571C27.6953 19.1516 28.7444 20.2008 30.039 20.2008C31.333 20.2008 32.3822 19.1516 32.3822 17.8571V10.636C34.0411 9.80837 35.8502 9.23891 37.7569 8.98012V20.7325C37.7569 22.0264 38.8061 23.0762 40.1007 23.0762C41.3946 23.0762 42.4444 22.0264 42.4444 20.7325V8.98012C44.3512 9.23891 46.1603 9.80898 47.8198 10.6366V17.8571C47.8198 19.1516 48.869 20.2008 50.1636 20.2008C51.4575 20.2008 52.5073 19.1516 52.5073 17.8571V14.0564C55.5634 17.1857 57.45 21.4618 57.45 26.1713V28.5944H22.7508V26.1713ZM54.4751 33.2819V46.4088C54.4751 54.3348 48.0267 60.7832 40.1007 60.7832C32.174 60.7832 25.7256 54.3348 25.7256 46.4088V33.2819H54.4751ZM25.0872 71.6768C25.4296 72.4245 25.8819 73.2271 26.4794 74.0315C26.7773 74.4331 27.0928 74.8061 27.42 75.1564H17.5475L25.0872 71.6768ZM52.8247 75.1564C53.1512 74.8103 53.4668 74.4417 53.7659 74.0449C54.3683 73.246 54.826 72.4483 55.1752 71.7055L62.6538 75.1564H52.8247Z" fill="black"/>
    </g>
    <defs>
        <clipPath id="clip0">
            <rect width="80" height="80" fill="white"/>
        </clipPath>
    </defs>
</svg>
