<svg width="73" height="73" viewBox="0 0 73 73" fill="none" xmlns="http://www.w3.org/2000/svg">
    <rect x="2.72266" y="8.5083" width="66.8741" height="60.4079" rx="5" fill="white"/>
    <path d="M55.0352 32.793C56.61 32.793 57.8867 31.5163 57.8867 29.9414C57.8867 28.3665 56.61 27.0898 55.0352 27.0898C53.4603 27.0898 52.1836 28.3665 52.1836 29.9414C52.1836 31.5163 53.4603 32.793 55.0352 32.793Z" fill="black"/>
    <path d="M61.5938 5.70312H57.8867V2.85156C57.8867 1.27664 56.6101 0 55.0352 0C53.4602 0 52.1836 1.27664 52.1836 2.85156V5.70312H39.209V2.85156C39.209 1.27664 37.9323 0 36.3574 0C34.7825 0 33.5059 1.27664 33.5059 2.85156V5.70312H20.6738V2.85156C20.6738 1.27664 19.3972 0 17.8223 0C16.2473 0 14.9707 1.27664 14.9707 2.85156V5.70312H11.4062C5.11684 5.70312 0 10.82 0 17.1094V61.5938C0 67.8832 5.11684 73 11.4062 73H55.6846C57.2595 73 58.5361 71.7234 58.5361 70.1484C58.5361 68.5735 57.2595 67.2969 55.6846 67.2969H11.4062C8.26155 67.2969 5.70312 64.7384 5.70312 61.5938V17.1094C5.70312 13.9647 8.26155 11.4062 11.4062 11.4062H14.9707V14.2578C14.9707 15.8327 16.2473 17.1094 17.8223 17.1094C19.3972 17.1094 20.6738 15.8327 20.6738 14.2578V11.4062H33.5059V14.2578C33.5059 15.8327 34.7825 17.1094 36.3574 17.1094C37.9323 17.1094 39.209 15.8327 39.209 14.2578V11.4062H52.1836V14.2578C52.1836 15.8327 53.4602 17.1094 55.0352 17.1094C56.6101 17.1094 57.8867 15.8327 57.8867 14.2578V11.4062H61.5938C64.7384 11.4062 67.2969 13.9647 67.2969 17.1094V55.3881C67.2969 56.963 68.5735 58.2397 70.1484 58.2397C71.7234 58.2397 73 56.963 73 55.3881V17.1094C73 10.82 67.8832 5.70312 61.5938 5.70312Z" fill="black"/>
    <path d="M55.748 38.4961C46.2352 38.4961 38.4961 46.2352 38.4961 55.748C38.4961 65.2609 46.2352 73 55.748 73C65.2609 73 73 65.2609 73 55.748C73 46.2352 65.2609 38.4961 55.748 38.4961ZM55.748 67.2969C49.3801 67.2969 44.1992 62.1162 44.1992 55.748C44.1992 49.3799 49.3801 44.1992 55.748 44.1992C62.116 44.1992 67.2969 49.3799 67.2969 55.748C67.2969 62.1162 62.116 67.2969 55.748 67.2969Z" fill="black"/>
    <path d="M59.8828 52.8965H58.5996V49.9023C58.5996 48.3274 57.323 47.0508 55.748 47.0508C54.1731 47.0508 52.8965 48.3274 52.8965 49.9023V55.748C52.8965 57.323 54.1731 58.5996 55.748 58.5996H59.8828C61.4577 58.5996 62.7344 57.323 62.7344 55.748C62.7344 54.1731 61.4577 52.8965 59.8828 52.8965Z" fill="black"/>
    <path d="M42.6309 32.793C44.2057 32.793 45.4824 31.5163 45.4824 29.9414C45.4824 28.3665 44.2057 27.0898 42.6309 27.0898C41.056 27.0898 39.7793 28.3665 39.7793 29.9414C39.7793 31.5163 41.056 32.793 42.6309 32.793Z" fill="black"/>
    <path d="M30.2266 45.1973C31.8014 45.1973 33.0781 43.9206 33.0781 42.3457C33.0781 40.7708 31.8014 39.4941 30.2266 39.4941C28.6517 39.4941 27.375 40.7708 27.375 42.3457C27.375 43.9206 28.6517 45.1973 30.2266 45.1973Z" fill="black"/>
    <path d="M17.8223 32.793C19.3971 32.793 20.6738 31.5163 20.6738 29.9414C20.6738 28.3665 19.3971 27.0898 17.8223 27.0898C16.2474 27.0898 14.9707 28.3665 14.9707 29.9414C14.9707 31.5163 16.2474 32.793 17.8223 32.793Z" fill="black"/>
    <path d="M17.8223 45.1973C19.3971 45.1973 20.6738 43.9206 20.6738 42.3457C20.6738 40.7708 19.3971 39.4941 17.8223 39.4941C16.2474 39.4941 14.9707 40.7708 14.9707 42.3457C14.9707 43.9206 16.2474 45.1973 17.8223 45.1973Z" fill="black"/>
    <path d="M17.8223 57.6016C19.3971 57.6016 20.6738 56.3249 20.6738 54.75C20.6738 53.1751 19.3971 51.8984 17.8223 51.8984C16.2474 51.8984 14.9707 53.1751 14.9707 54.75C14.9707 56.3249 16.2474 57.6016 17.8223 57.6016Z" fill="black"/>
    <path d="M30.2266 57.6016C31.8014 57.6016 33.0781 56.3249 33.0781 54.75C33.0781 53.1751 31.8014 51.8984 30.2266 51.8984C28.6517 51.8984 27.375 53.1751 27.375 54.75C27.375 56.3249 28.6517 57.6016 30.2266 57.6016Z" fill="black"/>
    <path d="M30.2266 32.793C31.8014 32.793 33.0781 31.5163 33.0781 29.9414C33.0781 28.3665 31.8014 27.0898 30.2266 27.0898C28.6517 27.0898 27.375 28.3665 27.375 29.9414C27.375 31.5163 28.6517 32.793 30.2266 32.793Z" fill="black"/>
</svg>
