<svg width="24" height="24" viewBox="0 0 24 24" fill="none" xmlns="http://www.w3.org/2000/svg">
    <path d="M12 6.69986C10.3086 6.69986 8.93262 8.07592 8.93262 9.76727C8.93262 11.4586 10.3086 12.8347 12 12.8347C13.6914 12.8347 15.0674 11.4586 15.0674 9.76727C15.0674 8.07592 13.6914 6.69986 12 6.69986Z" fill="#FFCA0D"/>
    <path d="M5.52961 3.6802L5.52962 3.68019C7.25927 1.95051 9.55402 1 12.0001 1C14.4463 1 16.741 1.95051 18.4707 3.68019C20.2004 5.40994 21.1509 7.70466 21.1509 10.1508C21.1509 12.5772 20.0002 14.8751 18.4177 16.9268C16.8396 18.9727 14.9168 20.6674 13.5179 21.898L13.5179 21.898L13.5067 21.9078C13.1279 22.2411 12.7849 22.5428 12.508 22.8015C12.3676 22.9326 12.1865 23 12.0001 23C11.8136 23 11.6327 22.9326 11.4924 22.8016L11.4923 22.8015C11.2163 22.5436 10.8744 22.2429 10.4971 21.9109L10.4824 21.898L10.4823 21.8979C9.08347 20.6674 7.1606 18.9726 5.5826 16.9268C4.00009 14.8751 2.84937 12.5772 2.84937 10.1507C2.84937 7.70466 3.79986 5.40995 5.52961 3.6802Z" stroke="#FFCA0D" stroke-width="2"/>
</svg>

